<svg xmlns="http://www.w3.org/2000/svg" width="18" height="14" viewBox="0 0 18 14" fill="none">
  <path d="M0.0702988 0.262889C0.108963 0.198278 0.193322 0.112129 0.256591 0.0726447H0.253076C0.362039 0.00444401 0.432338 0.000854492 2.88225 0.000854492L2.97364 0.205457C3.02285 0.320321 3.08612 0.517744 3.11424 0.646967C3.13884 0.776189 3.16344 0.977202 3.16344 1.09566C3.16344 1.21411 3.13181 1.44025 3.09315 1.59819C3.05097 1.75613 2.97012 1.98227 2.90685 2.10072C2.84359 2.22635 2.68541 2.43095 2.53076 2.5853C2.37961 2.74324 2.17926 2.90477 2.05624 2.96938C1.94025 3.03399 1.71881 3.11655 1.56415 3.15963C1.40949 3.19911 1.18805 3.23142 1.07206 3.23142C0.956063 3.23142 0.759227 3.20629 0.632689 3.18116C0.506151 3.15245 0.31283 3.08784 0 2.94425V1.6628C0 0.442364 0.00351494 0.370574 0.0702988 0.262889Z" fill="#10BB67"/>
  <path d="M10.5835 0.808495V0.40288V0.000854492H12.8506C14.0984 0.000854492 15.1142 0.011623 15.1072 0.0295706C15.1002 0.0439286 15.0615 0.137256 15.0158 0.234173C14.9736 0.334679 14.9139 0.517744 14.8858 0.646967C14.8612 0.776189 14.8366 0.977202 14.8366 1.09566C14.8366 1.21411 14.8682 1.44025 14.9069 1.59819C14.949 1.75613 15.0299 1.98227 15.0931 2.10072C15.1564 2.22276 15.3181 2.43454 15.4692 2.58889C15.6626 2.78991 15.8032 2.89759 15.9965 2.99451C16.1406 3.0663 16.3691 3.14886 16.5062 3.17757C16.6432 3.20629 16.8401 3.23142 16.9455 3.23142C17.051 3.23142 17.2408 3.20629 17.3673 3.18116C17.4939 3.15245 17.6731 3.09142 17.7715 3.04835C17.8664 3.00169 17.9578 2.9622 17.9719 2.95502C17.9895 2.94784 18 3.79856 18 4.8467C18 5.89483 17.9895 6.74555 17.9719 6.73837C17.9578 6.73119 17.8664 6.69171 17.7715 6.64504C17.6731 6.60197 17.5009 6.54095 17.3849 6.51223C17.2689 6.4871 17.0721 6.46198 16.9455 6.46198C16.819 6.46198 16.5905 6.49428 16.4359 6.53377C16.2812 6.57684 16.0598 6.6594 15.9438 6.72401C15.8207 6.78862 15.6204 6.95015 15.4692 7.10809C15.3146 7.26244 15.1564 7.46704 15.0931 7.59267C15.0299 7.71113 14.949 7.93727 14.9069 8.09521C14.8682 8.25314 14.8366 8.48646 14.8366 8.61568C14.8366 8.74491 14.8612 8.94951 14.8893 9.07155C14.9174 9.19719 14.9807 9.38384 15.0299 9.48435C15.0791 9.58844 15.1178 9.67818 15.1178 9.68177C15.1178 9.68895 14.0984 9.69254 10.5835 9.69254V8.8849L10.819 8.70183C10.9525 8.59774 11.2091 8.35724 11.3919 8.15982C11.5747 7.96598 11.8102 7.67882 11.9121 7.52088C12.0141 7.36294 12.1687 7.08655 12.2531 6.91067C12.3374 6.73478 12.4464 6.45839 12.4956 6.30045C12.5448 6.14251 12.6116 5.89124 12.6397 5.74407C12.6678 5.5969 12.703 5.28103 12.7135 5.04412C12.7311 4.72465 12.7206 4.50569 12.6784 4.20058C12.6432 3.97444 12.5694 3.63344 12.5097 3.44679C12.4499 3.26013 12.355 3.00169 12.2988 2.87246C12.2425 2.74324 12.1371 2.54223 12.0668 2.42378C12 2.30532 11.8664 2.10431 11.7715 1.97509C11.6766 1.84586 11.4798 1.61614 11.3286 1.46179C11.181 1.30744 10.9525 1.09566 10.5835 0.808495Z" fill="#10BB67"/>
  <path d="M6.62917 1.51204C6.80492 1.32538 7.04745 1.09566 7.17399 1.00233L7.40246 0.826442L7.41301 2.8258C7.41652 3.92778 7.41652 5.7369 7.40246 8.87413L7.13884 8.66235C6.99473 8.54389 6.7522 8.31417 6.60457 8.15264C6.45343 7.99111 6.2355 7.71113 6.11599 7.52806C6 7.345 5.84534 7.07578 5.77856 6.92861C5.71178 6.77785 5.60984 6.51941 5.55712 6.35429C5.50088 6.18558 5.42707 5.90919 5.39192 5.74407C5.34622 5.51794 5.32865 5.27744 5.32865 4.8467C5.32865 4.41237 5.34622 4.17187 5.39192 3.94932C5.42707 3.78061 5.50439 3.49704 5.56063 3.32115C5.62039 3.14168 5.73286 2.85811 5.81371 2.69299C5.89807 2.52428 6.04218 2.26584 6.13708 2.11867C6.2355 1.9715 6.45694 1.69869 6.62917 1.51204Z" fill="#10BB67"/>
  <path d="M0.207381 6.65581C0.316344 6.60197 0.502636 6.54095 0.618629 6.51582C0.734622 6.4871 0.931459 6.46557 1.058 6.46557C1.18453 6.46198 1.41301 6.49428 1.56766 6.53377C1.72232 6.57684 1.94376 6.6594 2.05975 6.72401C2.18278 6.78862 2.38313 6.95015 2.53427 7.10809C2.68893 7.26244 2.8471 7.46704 2.91037 7.59267C2.97364 7.71113 3.05448 7.93727 3.09666 8.09521C3.13533 8.25314 3.16696 8.47928 3.16696 8.59774C3.16696 8.71619 3.14587 8.9172 3.11775 9.04643C3.08963 9.17565 3.02636 9.36948 2.97715 9.47717C2.92794 9.58485 2.88576 9.67818 2.88576 9.68177C2.88576 9.68895 3.9051 9.69254 7.42004 9.69254V11.8462H0.00351494V6.74914L0.207381 6.65581Z" fill="#10BB67"/>
  <path d="M10.5835 14V12.9231V11.8462H18V12.7257C18 13.4364 17.9895 13.6266 17.9473 13.7128C17.9192 13.7702 17.8418 13.86 17.6661 13.9964L10.5835 14Z" fill="#10BB67"/>
  <path d="M14.8824 0.647013C14.907 0.517791 14.9738 0.320368 15.023 0.209093L15.1179 0.00090094H16.3727C17.622 -0.00268265 17.6275 0.00088912 17.7499 0.0794801L17.7506 0.0798702C17.8173 0.126534 17.9017 0.219861 17.9333 0.288062C17.9896 0.399337 17.9966 0.546507 17.9966 2.9443L17.7962 3.03763C17.6838 3.09147 17.4904 3.15608 17.3639 3.18121C17.2374 3.20993 17.0476 3.23146 16.9421 3.23146C16.8367 3.23146 16.6398 3.20634 16.5027 3.17762C16.3692 3.1489 16.1372 3.06634 15.9931 2.99455C15.7998 2.89764 15.6592 2.78995 15.4658 2.58894C15.3147 2.43459 15.153 2.22281 15.0897 2.10077C15.0265 1.98231 14.9456 1.75617 14.9035 1.59823C14.8648 1.4403 14.8332 1.21416 14.8332 1.0957C14.8332 0.977248 14.8542 0.776236 14.8824 0.647013Z" fill="#0CA656"/>
  <path d="M10.6223 8.84546C10.5871 8.86341 10.5801 8.05218 10.5801 4.85033V4.84674C10.5801 2.63919 10.5836 0.826489 10.5871 0.826489C10.5941 0.826489 10.6926 0.898279 10.8085 0.988017C10.9245 1.08134 11.1425 1.27877 11.2936 1.42953C11.4448 1.58388 11.6521 1.82078 11.7541 1.95719C11.856 2.09718 11.9931 2.30537 12.0634 2.42382C12.1337 2.54587 12.2391 2.74688 12.2954 2.87251C12.3516 3.00173 12.4465 3.26018 12.5063 3.44683C12.5625 3.63708 12.6398 3.97449 12.6715 4.20063C12.7172 4.50933 12.7277 4.72829 12.7101 5.04417C12.6996 5.28107 12.6644 5.59695 12.6363 5.74412C12.6082 5.89488 12.5414 6.14256 12.4922 6.3005C12.443 6.45843 12.334 6.73483 12.2497 6.91071C12.1653 7.09019 12.0107 7.36299 11.9087 7.52093C11.8068 7.67887 11.5783 7.95885 11.4061 8.1455C11.2303 8.33216 10.9948 8.5583 10.8788 8.65163C10.7629 8.74495 10.6469 8.8311 10.6223 8.84546Z" fill="#0CA656"/>
  <path d="M15.9404 6.72765C16.0564 6.66663 16.2708 6.58048 16.4149 6.54099C16.559 6.5051 16.7875 6.4692 16.9245 6.4692C17.0581 6.4692 17.2725 6.49433 17.3991 6.52305C17.5256 6.55535 17.7084 6.61996 17.9966 6.75277V11.8499H10.5801V9.69617H12.8472C14.095 9.69617 15.1143 9.69259 15.1143 9.689C15.1143 9.68541 15.0757 9.59567 15.0265 9.49157C14.9773 9.38748 14.914 9.20082 14.8859 9.07878C14.8578 8.95674 14.8332 8.74854 14.8332 8.61932C14.8332 8.49369 14.8648 8.25678 14.9035 8.09884C14.9421 7.94449 15.0265 7.71835 15.0862 7.59631C15.153 7.47427 15.3112 7.26966 15.4623 7.11173C15.617 6.95738 15.8173 6.79226 15.9404 6.72765Z" fill="#0CA656"/>
  <path d="M2.97364 0.216225C2.92443 0.10854 2.88225 0.0152125 2.88225 0.011623C2.88225 0.004444 3.90158 0.000854492 7.41652 0.000854492L7.42004 0.808495L7.18102 0.99156C7.05097 1.09207 6.79789 1.32897 6.62566 1.51563C6.45343 1.70228 6.23199 1.9715 6.13357 2.11867C6.03866 2.26584 5.89455 2.52428 5.81019 2.69299C5.72935 2.8617 5.61687 3.14527 5.55712 3.32115C5.50088 3.49704 5.42355 3.78061 5.3884 3.94932C5.34271 4.17187 5.32513 4.41595 5.32513 4.8467C5.32513 5.27744 5.34271 5.52152 5.3884 5.74407C5.42355 5.91278 5.49736 6.18558 5.55009 6.35429C5.60633 6.523 5.70826 6.78144 5.77504 6.92861C5.84183 7.07578 5.99649 7.34859 6.11248 7.53165C6.23199 7.71113 6.46397 8.00906 6.63269 8.18853C6.80492 8.36801 7.04745 8.59774 7.41652 8.8849V9.69254H5.14939C3.90158 9.69254 2.88225 9.68895 2.88225 9.68536C2.88225 9.67818 2.92443 9.58485 2.97364 9.47717C3.02285 9.36948 3.08612 9.17565 3.11424 9.04643C3.13884 8.9172 3.16344 8.71619 3.16344 8.59774C3.16344 8.47928 3.13181 8.25314 3.09315 8.09521C3.05097 7.93727 2.97012 7.71113 2.90685 7.59267C2.84359 7.46704 2.68541 7.26244 2.53076 7.10809C2.37961 6.95015 2.17926 6.78862 2.05624 6.72401C1.94025 6.6594 1.71881 6.57684 1.56415 6.53377C1.40949 6.49428 1.18805 6.46198 1.07206 6.46198C0.956063 6.46198 0.759227 6.4871 0.632689 6.51223C0.506151 6.54095 0.316344 6.60556 0.210896 6.65581C0.105448 6.70606 0.0140598 6.74914 0.00702988 6.74914C0.00351494 6.74914 0 5.89483 0 4.8467C0 3.79856 0.00351494 2.94425 0.00702988 2.94425C0.0140598 2.94425 0.105448 2.98733 0.210896 3.03758C0.316344 3.08784 0.506151 3.15245 0.632689 3.18116C0.759227 3.20629 0.956063 3.23142 1.07206 3.23142C1.18805 3.23142 1.40949 3.19911 1.56415 3.15963C1.71881 3.11655 1.94025 3.03399 2.05624 2.96938C2.17926 2.90477 2.37961 2.74324 2.53076 2.5853C2.68541 2.43095 2.84359 2.22635 2.90685 2.10072C2.97012 1.98227 3.05097 1.75613 3.09315 1.59819C3.13181 1.44025 3.16344 1.21411 3.16344 1.09566C3.16344 0.977202 3.13884 0.776189 3.11424 0.646967C3.08612 0.517744 3.02285 0.323911 2.97364 0.216225Z" fill="#32D736"/>
  <path d="M0.0702988 13.7415C0.00702988 13.6302 0 13.5584 0 12.7329V11.8462H7.41652V14H3.89104C0.432337 14 0.365554 14 0.253076 13.9282C0.193322 13.8887 0.108963 13.8025 0.0702988 13.7415Z" fill="#32D736"/>
  <path d="M7.4165 9.69254V4.8467V0.000854492H8.99823V9.69254H7.4165Z" fill="#E1E4FB"/>
  <path d="M8.99823 9.69254V4.8467V0.000854492H10.5799V9.69254H8.99823V14H7.4165V9.69254H8.99823Z" fill="#C5C9F7"/>
  <path d="M8.99829 14V11.8463V9.69257H10.58V14H8.99829Z" fill="#A8AFF1"/>
</svg>