<svg xmlns="http://www.w3.org/2000/svg" width="33" height="32" viewBox="0 0 33 32" fill="none">
  <rect width="33" height="32" rx="8" fill="#F7F7F7"/>
  <path d="M16.6272 7.00008C16.3868 7.02886 8.89534 12.052 8.85216 12.2045C8.80898 12.3585 8.79171 13.959 8.79171 13.959L9.75747 14.2656L9.76179 15.5379L10.2785 16.5958V21.0676L9.89276 21.9096L8.83489 22.2219V22.979L8.00586 23.2309C8.00586 23.2309 8.01737 23.88 8.01737 23.9879C8.01737 24.0959 8.05336 24.3247 8.48658 24.3247C8.9198 24.3247 24.7318 24.2513 24.8915 24.2513C25.0513 24.2513 25.2168 24.2197 25.2254 23.9332C25.2341 23.6468 25.2168 23.2424 25.2168 23.2424L24.4137 22.8451L24.4108 22.2104L23.1039 21.8074L22.7887 20.9151L22.7931 16.7109L23.2939 15.6545L23.4451 15.3681V14.231L24.287 13.913C24.287 13.913 24.3029 12.2679 24.2784 12.2204C24.2568 12.1743 16.8258 6.97705 16.6272 7.00008Z" fill="#CDDFEE"/>
  <path d="M9.52996 12.5385C9.48534 12.6493 9.47383 13.4669 9.51413 13.5072C9.55443 13.5475 23.4665 13.5259 23.514 13.487C23.5615 13.4481 23.5687 12.5601 23.5457 12.5054C23.5227 12.4507 19.6006 9.77222 19.6006 9.77222L13.5369 9.80244C13.5355 9.80244 9.55586 12.4723 9.52996 12.5385ZM8.00576 23.2338C7.9928 23.2022 8.00576 23.0525 8.00576 22.992C8.00576 22.9316 8.06333 22.8625 8.19286 22.8625C8.3224 22.8625 24.7648 22.8395 24.8454 22.8423C25.0483 22.8495 25.185 22.8927 25.2052 23.0223C25.2253 23.1518 25.2181 23.2453 25.2181 23.2453L8.00576 23.2338ZM24.4121 22.2119L8.83622 22.2235C8.83622 22.2235 8.84198 22.0637 8.84198 22.009C8.84198 21.9543 8.87077 21.8651 9.05643 21.8651C9.2421 21.8651 24.0135 21.8089 24.1401 21.8089C24.2668 21.8089 24.4049 21.868 24.4222 21.9557C24.4395 22.0435 24.4121 22.2119 24.4121 22.2119ZM22.9052 21.2476L22.7901 20.9108L10.2755 20.908L10.182 21.2836L22.9052 21.2476ZM10.1316 16.2893L22.9786 16.3339L22.7944 16.711L10.2798 16.7585L10.1316 16.2893ZM9.85092 15.7596C9.85092 15.7596 9.73721 15.6776 9.7185 15.5696C9.69979 15.4617 9.75017 15.3984 9.75017 15.3984L23.4464 15.3681C23.4464 15.3681 23.4982 15.4747 23.4536 15.5495C23.409 15.6258 23.2823 15.6949 23.2823 15.6949L9.85092 15.7596ZM8.79161 13.9591L24.2884 13.913C24.2884 13.913 24.2984 14.0613 24.2884 14.1232C24.2797 14.1851 24.1991 14.2398 23.9933 14.2398H23.7875C23.7875 14.2398 9.28096 14.3117 9.11976 14.3117C8.95856 14.3117 8.84342 14.2225 8.81607 14.1505C8.80024 14.103 8.79161 13.9591 8.79161 13.9591Z" fill="#94ADBC"/>
  <path d="M9.91577 12.9285L13.1757 10.7278L13.3945 12.9717L9.91577 12.9285ZM19.9245 10.6544L23.1888 12.9573H19.8368L19.9245 10.6544Z" fill="#657582"/>
  <path d="M12.132 15.7495L12.6689 15.748L13.0891 16.757L13.0503 20.9107L12.7005 21.852L12.0759 21.8535L11.7319 20.9165L11.7161 16.7483L12.132 15.7495ZM14.9904 15.7351L14.4565 16.7339L14.4968 20.9107L14.8134 21.8448L18.3008 21.8304L18.6145 20.9107L18.6232 16.7253L18.2159 15.7193L14.9904 15.7351ZM20.4741 15.7092L20.9476 15.7063L21.3665 16.7152L21.365 20.9122L21.1218 21.8218L20.3316 21.8233L20.0898 20.9122L20.0711 16.7196L20.4741 15.7092Z" fill="#54636E"/>
  <path d="M15.1848 21.8434V18.641L17.9943 18.6683L18.0001 21.8348L15.1848 21.8434Z" fill="#6BA4AE"/>
  <path d="M16.4284 18.4956L16.427 21.8391L16.7177 21.8376V18.5445L16.4284 18.4956Z" fill="#A5D0D7"/>
  <path d="M15.1848 18.7937V17.9906H17.9943V18.7937C17.9943 18.7937 15.2093 18.7693 15.1848 18.7937Z" fill="#95ACBC"/>
  <path d="M15.185 17.9904H17.9945C17.9945 17.9904 18.006 17.74 17.7455 17.7155C17.485 17.691 15.5708 17.7112 15.4096 17.7155C15.1692 17.7227 15.185 17.9904 15.185 17.9904Z" fill="#CCDEED"/>
  <path d="M16.5911 8.04647C14.5056 8.05942 12.8547 9.70884 12.9253 11.7944C12.9958 13.8799 14.9086 15.3465 16.5911 15.3336C18.3571 15.3206 20.2167 14.0569 20.3002 11.7829C20.3851 9.51022 18.4708 8.03352 16.5911 8.04647Z" fill="#CDDFEE"/>
  <path d="M16.604 8.54584C14.8582 8.55735 13.4606 9.98944 13.5196 11.8058C13.5772 13.6222 15.1144 14.7736 16.5234 14.7866C18.1484 14.801 19.6438 13.7388 19.7129 11.7598C19.7819 9.78074 18.1771 8.53576 16.604 8.54584Z" fill="#94ADBC"/>
  <path d="M16.1005 9.56059C16.1005 9.56059 16.0688 9.00503 16.1077 8.95753C16.1465 8.91003 16.3048 8.91003 16.6114 8.91003C16.9194 8.91003 17.0446 8.91003 17.0921 8.94889C17.1396 8.98776 17.1152 9.59513 17.1152 9.59513C17.1152 9.59513 17.5325 9.75201 17.7931 9.95351C18.0694 10.1665 18.2666 10.4501 18.2508 10.4976C18.2349 10.5451 17.6837 11.0258 17.6045 11.0099C17.5254 10.9941 17.0763 10.4688 16.5409 10.4342C15.6903 10.3795 15.6975 11.0416 16.2257 11.223C16.7539 11.4043 18.4191 11.5482 18.3544 12.8738C18.2997 13.9893 17.1727 14.0684 17.1727 14.0684C17.1727 14.0684 17.2044 14.4858 17.1727 14.5103C17.1411 14.5348 16.148 14.5491 16.1163 14.5031C16.0846 14.457 16.1091 14.0296 16.1091 14.0296C16.1091 14.0296 15.6672 13.9432 15.3045 13.6985C14.9418 13.4539 14.6813 13.1315 14.6741 13.0912C14.6669 13.0523 15.3132 12.5082 15.3592 12.4924C15.4053 12.4766 16.063 13.1243 16.6834 13.1775C17.3138 13.2322 17.5815 12.6104 16.7064 12.3427C15.8313 12.075 14.7993 11.8462 14.8468 10.7509C14.8943 9.63831 16.1005 9.56059 16.1005 9.56059Z" fill="#024FAC"/>
</svg>